<?xml version="1.0" encoding="UTF-8"?>
<svg version="1.1" xmlns="http://www.w3.org/2000/svg" width="1024" height="1024">
<path d="M0 0 C1.00095703 -0.00281982 2.00191406 -0.00563965 3.03320312 -0.00854492 C4.14069916 -0.00652069 5.24819519 -0.00449646 6.38925171 -0.00241089 C7.54858215 -0.00416321 8.7079126 -0.00591553 9.90237427 -0.00772095 C13.7591804 -0.01214451 17.61594115 -0.00919856 21.4727478 -0.00582886 C24.14497943 -0.00650203 26.81720965 -0.00747058 29.48944092 -0.00872803 C35.10351049 -0.01055033 40.71756694 -0.00814341 46.33163452 -0.00338745 C52.81226365 0.00203941 59.29286125 0.00030426 65.77348959 -0.00521386 C71.33875631 -0.00976226 76.90401357 -0.01038661 82.46928155 -0.00777519 C85.79223697 -0.00621986 89.11517443 -0.0063931 92.43812943 -0.00931168 C96.15102504 -0.01185544 99.86386056 -0.00797246 103.57675171 -0.00241089 C105.21977768 -0.00544724 105.21977768 -0.00544724 106.89599609 -0.00854492 C108.42281006 -0.00431519 108.42281006 -0.00431519 109.98046875 0 C111.29622359 0.00056554 111.29622359 0.00056554 112.63855934 0.0011425 C115.90094404 0.15137975 119.13816649 0.66512381 122.3711853 1.12698364 C122.7011853 14.98698364 123.0311853 28.84698364 123.3711853 43.12698364 C143.1711853 43.62198364 143.1711853 43.62198364 163.3711853 44.12698364 C163.3711853 57.65698364 163.3711853 71.18698364 163.3711853 85.12698364 C176.9011853 84.79698364 190.4311853 84.46698364 204.3711853 84.12698364 C204.3711853 97.98698364 204.3711853 111.84698364 204.3711853 126.12698364 C207.45204468 126.10378052 210.53290405 126.08057739 213.7071228 126.05667114 C216.68237903 126.04108536 219.65763075 126.0289345 222.63290405 126.01712036 C224.70486477 126.00704652 226.77681123 125.99338698 228.84872437 125.97610474 C231.82239294 125.951917 234.795874 125.94051456 237.7696228 125.93167114 C238.69987274 125.92134857 239.63012268 125.911026 240.58856201 125.90039062 C241.44930328 125.90023956 242.31004456 125.9000885 243.1968689 125.89993286 C243.95631805 125.89549164 244.71576721 125.89105042 245.49822998 125.88647461 C247.3711853 126.12698364 247.3711853 126.12698364 249.3711853 128.12698364 C249.0411853 128.45698364 248.7111853 128.78698364 248.3711853 129.12698364 C248.28253323 132.01132184 248.25597234 134.87160522 248.27352905 137.75588989 C248.274944 138.6201207 248.27635895 139.4843515 248.27781677 140.37477112 C248.28343291 143.14637656 248.29598811 145.91790244 248.3086853 148.68948364 C248.31369822 150.56383144 248.31826149 152.43818049 248.32235718 154.31253052 C248.33340759 158.91737908 248.35068301 163.52216785 248.3711853 168.12698364 C250.12761353 168.11912842 250.12761353 168.11912842 251.91952515 168.1111145 C256.25431558 168.09304606 260.58910267 168.08154486 264.92391968 168.072052 C266.80185505 168.06701602 268.6797865 168.06018694 270.55770874 168.05154419 C273.25335662 168.03944651 275.94895278 168.03374807 278.6446228 168.02932739 C279.48737762 168.02416611 280.33013245 168.01900482 281.19842529 168.01368713 C287.14344189 168.01311194 287.14344189 168.01311194 289.3711853 169.12698364 C289.39600349 173.85923892 289.41410114 178.59145585 289.42611694 183.32376099 C289.43112906 184.93184062 289.43794049 186.53991574 289.44662476 188.14797974 C289.45882756 190.46651326 289.46444495 192.78498624 289.46884155 195.10354614 C289.47400284 195.81628693 289.47916412 196.52902771 289.48448181 197.2633667 C289.48494313 201.41811533 289.06423761 204.96866978 288.3711853 209.12698364 C301.5711853 209.12698364 314.7711853 209.12698364 328.3711853 209.12698364 C328.7011853 195.92698364 329.0311853 182.72698364 329.3711853 169.12698364 C332.75582282 167.43466488 336.59526068 168.00702034 340.3164978 168.02932739 C341.49296875 168.03083801 341.49296875 168.03083801 342.69320679 168.03237915 C345.6275478 168.03761753 348.56186799 168.05157877 351.4961853 168.06448364 C361.3343103 168.09542114 361.3343103 168.09542114 371.3711853 168.12698364 C371.3711853 154.26698364 371.3711853 140.40698364 371.3711853 126.12698364 C374.75996708 124.43259275 378.59926065 125.13184743 382.3164978 125.24807739 C383.2015097 125.27168839 384.08652161 125.29529938 384.99835205 125.31962585 C387.83112348 125.39633288 390.66362634 125.48032686 393.4961853 125.56448364 C395.41414082 125.61769728 397.33210952 125.67043773 399.25009155 125.72268677 C403.95729357 125.85195755 408.66426742 125.98776494 413.3711853 126.12698364 C413.31789063 125.06338623 413.31789063 125.06338623 413.26351929 123.978302 C413.10306196 120.67405975 412.95585059 117.3693436 412.8086853 114.06448364 C412.75261108 112.95008911 412.69653687 111.83569458 412.63876343 110.68753052 C412.26400771 101.96821425 412.78221661 93.96151401 413.3711853 85.12698364 C426.9011853 84.79698364 440.4311853 84.46698364 454.3711853 84.12698364 C454.3711853 70.92698364 454.3711853 57.72698364 454.3711853 44.12698364 C456.0211853 43.46698364 457.6711853 42.80698364 459.3711853 42.12698364 C459.3711853 42.78698364 459.3711853 43.44698364 459.3711853 44.12698364 C460.35473999 44.04319458 461.33829468 43.95940552 462.35165405 43.87307739 C474.34273626 42.99350869 485.12915113 43.54402963 497.3711853 44.12698364 C497.3711853 29.93698364 497.3711853 15.74698364 497.3711853 1.12698364 C500.93808883 0.41360294 503.55349026 0.00167554 507.07446289 0 C507.9909964 -0.00281982 508.90752991 -0.00563965 509.85183716 -0.00854492 C510.84516052 -0.00652069 511.83848389 -0.00449646 512.86190796 -0.00241089 C513.91786163 -0.00416321 514.97381531 -0.00591553 516.06176758 -0.00772095 C519.55294438 -0.01212196 523.04407048 -0.00920632 526.5352478 -0.00582886 C528.96797699 -0.0065027 531.4007061 -0.0074734 533.83343506 -0.00872803 C538.93603149 -0.01020288 544.03861043 -0.00805835 549.14120483 -0.00338745 C555.66086545 0.00229152 562.18048473 -0.00095888 568.70014381 -0.00695992 C573.72750149 -0.01058677 578.75484951 -0.00941688 583.78220749 -0.00683212 C586.18461487 -0.00616778 588.58702314 -0.00697395 590.98942947 -0.00931168 C594.36100815 -0.01187109 597.7325216 -0.00795074 601.10409546 -0.00241089 C602.08527344 -0.00443512 603.06645142 -0.00645935 604.07736206 -0.00854492 C610.6173343 0.01121138 616.80330082 0.52990324 623.3711853 1.12698364 C623.3711853 29.17698364 623.3711853 57.22698364 623.3711853 86.12698364 C609.8411853 86.12698364 596.3111853 86.12698364 582.3711853 86.12698364 C582.0411853 99.65698364 581.7111853 113.18698364 581.3711853 127.12698364 C567.8411853 127.45698364 554.3111853 127.78698364 540.3711853 128.12698364 C540.3711853 141.65698364 540.3711853 155.18698364 540.3711853 169.12698364 C526.5111853 169.12698364 512.6511853 169.12698364 498.3711853 169.12698364 C498.5361853 173.08698364 498.7011853 177.04698364 498.8711853 181.12698364 C499.27194009 191.1351915 499.50735028 201.1112934 499.3711853 211.12698364 C485.37450563 212.3109928 471.4085125 212.23142804 457.3711853 212.12698364 C457.37904053 213.982146 457.37904053 213.982146 457.38705444 215.87478638 C457.40510092 220.44623089 457.41661601 225.01767223 457.42611694 229.58914185 C457.43115798 231.57091806 457.43799068 233.55269053 457.44662476 235.53445435 C457.45870045 238.37650473 457.46441575 241.21850612 457.46884155 244.06057739 C457.47400284 244.95224106 457.47916412 245.84390472 457.48448181 246.7625885 C457.48467707 248.88438966 457.4332856 251.00609144 457.3711853 253.12698364 C455.23728606 255.26088289 450.48321986 254.38659294 447.52352905 254.44338989 C446.73820801 254.46204102 445.95288696 254.48069214 445.14376831 254.49990845 C442.19885947 254.56841449 439.25375807 254.6284299 436.3086853 254.68948364 C429.7293103 254.83385864 423.1499353 254.97823364 416.3711853 255.12698364 C416.0411853 281.52698364 415.7111853 307.92698364 415.3711853 335.12698364 C428.9011853 335.12698364 442.4311853 335.12698364 456.3711853 335.12698364 C457.19743788 340.08449909 457.50281315 344.60871175 457.46884155 349.58792114 C457.46671913 350.77377304 457.46671913 350.77377304 457.46455383 351.98358154 C457.45899034 354.48975531 457.44644474 356.99583723 457.4336853 359.50198364 C457.42866558 361.2090136 457.4241035 362.91604496 457.42001343 364.62307739 C457.40903289 368.79108112 457.39179369 372.95901685 457.3711853 377.12698364 C458.57243042 377.11651001 459.77367554 377.10603638 461.01132202 377.09524536 C465.45790642 377.05911077 469.90447778 377.03610707 474.35116577 377.01712036 C476.27762024 377.00704782 478.20405938 376.99338921 480.13046265 376.97610474 C482.89563782 376.95191123 485.6606113 376.94051328 488.4258728 376.93167114 C489.2905014 376.92134857 490.15513 376.911026 491.04595947 376.90039062 C493.15572051 376.89999258 495.26499249 377.00433121 497.3711853 377.12698364 C499.3711853 379.12698364 499.3711853 379.12698364 499.59823608 383.1177063 C499.59791867 384.84218534 499.58657654 386.56668397 499.5664978 388.29104614 C499.56225296 389.65185806 499.56225296 389.65185806 499.55792236 391.04016113 C499.54670683 393.94423487 499.52159993 396.84800276 499.4961853 399.75198364 C499.48615727 401.71812503 499.47703111 403.68427124 499.46884155 405.65042114 C499.44846261 410.47615526 499.40931684 415.30122618 499.3711853 420.12698364 C512.5711853 420.12698364 525.7711853 420.12698364 539.3711853 420.12698364 C540.39592376 424.22593747 540.5154586 427.92137981 540.5039978 432.10354614 C540.50495453 432.87000458 540.50591125 433.63646301 540.50689697 434.42614746 C540.50757593 436.0415963 540.50574148 437.6570479 540.5015564 439.27249146 C540.4961894 441.75009238 540.5015185 444.22751323 540.50790405 446.70510864 C540.50724351 448.27542154 540.50596284 449.84573433 540.5039978 451.41604614 C540.50602203 452.15875763 540.50804626 452.90146912 540.51013184 453.66668701 C540.4861566 458.89704104 540.4861566 458.89704104 539.3711853 461.12698364 C540.60796021 461.09145386 541.84473511 461.05592407 543.11898804 461.01931763 C547.69030672 460.88933593 552.26178515 460.76604018 556.83334351 460.64480591 C558.81516479 460.5913047 560.79693742 460.53596934 562.77865601 460.47879028 C565.62059024 460.3971051 568.46263192 460.32193192 571.30477905 460.24807739 C572.64227455 460.2075248 572.64227455 460.2075248 574.00679016 460.16615295 C576.12765976 460.1142245 578.24971339 460.11509453 580.3711853 460.12698364 C581.3711853 461.12698364 581.3711853 461.12698364 581.48471069 465.00418091 C581.48455152 466.73392532 581.4788538 468.46367445 581.46884155 470.19338989 C581.46742661 471.10201279 581.46601166 472.01063568 581.46455383 472.9467926 C581.45893724 475.86105585 581.44638195 478.77524345 581.4336853 481.68948364 C581.42867244 483.66018566 581.42410916 485.63088888 581.42001343 487.60159302 C581.40896241 492.44341923 581.39168668 497.28518859 581.3711853 502.12698364 C582.0311853 502.12698364 582.6911853 502.12698364 583.3711853 502.12698364 C583.7011853 501.46698364 584.0311853 500.80698364 584.3711853 500.12698364 C584.3711853 500.78698364 584.3711853 501.44698364 584.3711853 502.12698364 C597.2411853 502.12698364 610.1111853 502.12698364 623.3711853 502.12698364 C623.3711853 530.50698364 623.3711853 558.88698364 623.3711853 588.12698364 C581.7911853 588.12698364 540.2111853 588.12698364 497.3711853 588.12698364 C496.05537631 584.17955667 496.24807492 580.41611315 496.27352905 576.30276489 C496.27453613 575.53911621 496.27554321 574.77546753 496.27658081 573.98867798 C496.28180867 571.13893124 496.29576994 568.28920591 496.3086853 565.43948364 C496.3293103 559.06635864 496.3499353 552.69323364 496.3711853 546.12698364 C482.5111853 545.79698364 468.6511853 545.46698364 454.3711853 545.12698364 C454.3711853 531.59698364 454.3711853 518.06698364 454.3711853 504.12698364 C441.29712831 504.20614882 441.29712831 504.20614882 428.22323608 504.30715942 C426.5876593 504.31299908 424.95207962 504.31809588 423.3164978 504.32229614 C422.46305786 504.33252808 421.60961792 504.34276001 420.73031616 504.353302 C418.60926397 504.35393346 416.48865023 504.2502925 414.3711853 504.12698364 C413.7111853 503.46698364 413.0511853 502.80698364 412.3711853 502.12698364 C412.70451864 500.79365031 413.03785197 499.46031698 413.3711853 498.12698364 C413.10068077 496.11752142 412.77750621 494.1134414 412.3711853 492.12698364 C413.0311853 492.12698364 413.6911853 492.12698364 414.3711853 492.12698364 C414.3711853 490.14698364 414.3711853 488.16698364 414.3711853 486.12698364 C413.7111853 485.79698364 413.0511853 485.46698364 412.3711853 485.12698364 C412.7011853 484.79698364 413.0311853 484.46698364 413.3711853 484.12698364 C413.62122495 480.66876962 413.62122495 480.66876962 413.3711853 477.12698364 C412.7111853 476.46698364 412.0511853 475.80698364 411.3711853 475.12698364 C412.0311853 474.46698364 412.6911853 473.80698364 413.3711853 473.12698364 C413.0205603 472.57010864 412.6699353 472.01323364 412.3086853 471.43948364 C411.13389403 468.54166516 411.44014399 467.07528114 412.3711853 464.12698364 C413.0311853 463.46698364 413.6911853 462.80698364 414.3711853 462.12698364 C413.3811853 462.45698364 412.3911853 462.78698364 411.3711853 463.12698364 C408.43335471 463.22433579 405.51990805 463.26692264 402.5821228 463.25979614 C401.72309357 463.26075287 400.86406433 463.26170959 399.97900391 463.26269531 C398.16506883 463.26337544 396.35113132 463.26153282 394.53720093 463.25735474 C391.75003651 463.25199105 388.96303229 463.25731208 386.1758728 463.26370239 C384.41545578 463.26304184 382.65503885 463.26176115 380.8946228 463.25979614 C380.05611786 463.26182037 379.21761292 463.2638446 378.35369873 463.26593018 C372.48614447 463.24194281 372.48614447 463.24194281 371.3711853 462.12698364 C371.21084056 459.0991181 371.11150567 456.09094372 371.05477905 453.06057739 C371.02680237 451.85310852 371.02680237 451.85310852 370.9982605 450.62124634 C370.92975123 447.60244143 370.86973789 444.58344856 370.8086853 441.56448364 C370.6643103 434.82010864 370.5199353 428.07573364 370.3711853 421.12698364 C356.8411853 421.12698364 343.3111853 421.12698364 329.3711853 421.12698364 C329.3711853 406.93698364 329.3711853 392.74698364 329.3711853 378.12698364 C315.8411853 378.12698364 302.3111853 378.12698364 288.3711853 378.12698364 C288.7011853 381.09698364 289.0311853 384.06698364 289.3711853 387.12698364 C289.44711912 389.83659633 289.48953225 392.51714554 289.46884155 395.22463989 C289.46671913 396.30424232 289.46671913 396.30424232 289.46455383 397.40565491 C289.45903072 399.66697649 289.44649373 401.92819284 289.4336853 404.18948364 C289.42866033 405.73831032 289.42409919 407.28713858 289.42001343 408.83596802 C289.40908668 412.5996794 289.39187705 416.36331379 289.3711853 420.12698364 C284.85061434 421.2640115 280.41778747 421.25512998 275.78915405 421.22463989 C274.56788567 421.22251747 274.56788567 421.22251747 273.32194519 421.22035217 C270.73415374 421.21477681 268.14645038 421.20222888 265.5586853 421.18948364 C263.79892093 421.18446546 262.0391552 421.17990311 260.27938843 421.17581177 C255.97662037 421.16481545 251.67391775 421.14756785 247.3711853 421.12698364 C247.42447998 422.73138306 247.42447998 422.73138306 247.47885132 424.36819458 C247.60934662 428.34133418 247.73246185 432.31467429 247.85336304 436.28811646 C247.90669099 438.00693001 247.96201294 439.72568292 248.01937866 441.44436646 C248.10154708 443.91656418 248.17651259 446.38889219 248.25009155 448.86135864 C248.29064415 450.01157501 248.29064415 450.01157501 248.33201599 451.18502808 C248.43014658 454.70297656 248.326466 457.74551389 247.3711853 461.12698364 C248.0311853 461.45698364 248.6911853 461.78698364 249.3711853 462.12698364 C247.11079676 463.25717791 245.79999704 463.27967322 243.28866577 463.33230591 C242.44794525 463.35225113 241.60722473 463.37219635 240.74102783 463.39274597 C239.37846359 463.41781471 239.37846359 463.41781471 237.9883728 463.44338989 C236.59426682 463.47456154 236.59426682 463.47456154 235.17199707 463.50636292 C232.1968032 463.57186011 229.22151953 463.63074417 226.2461853 463.68948364 C224.23185302 463.7326687 222.21752989 463.77628298 220.20321655 463.82034302 C215.25929867 463.92754167 210.31529028 464.02880866 205.3711853 464.12698364 C205.37642212 465.30317261 205.38165894 466.47936157 205.38705444 467.69119263 C205.40510193 472.03900395 205.41661638 476.38681194 205.42611694 480.73464966 C205.43115774 482.61942094 205.43799029 484.50418829 205.44662476 486.38894653 C205.45870147 489.092 205.46441599 491.79500195 205.46884155 494.49807739 C205.47400284 495.3459935 205.47916412 496.19390961 205.48448181 497.06752014 C205.48467725 499.08769433 205.43324741 501.10776298 205.3711853 503.12698364 C204.3711853 504.12698364 204.3711853 504.12698364 200.49398804 504.24050903 C198.76424364 504.24025787 197.03449425 504.23469407 195.30477905 504.22463989 C194.4997998 504.22363281 193.69482056 504.22262573 192.865448 504.22158813 C189.84651269 504.21633979 186.82759763 504.20237864 183.8086853 504.18948364 C173.6921228 504.15854614 173.6921228 504.15854614 163.3711853 504.12698364 C163.3711853 517.65698364 163.3711853 531.18698364 163.3711853 545.12698364 C149.8411853 545.45698364 136.3111853 545.78698364 122.3711853 546.12698364 C122.3711853 559.98698364 122.3711853 573.84698364 122.3711853 588.12698364 C80.1311853 588.12698364 37.8911853 588.12698364 -5.6288147 588.12698364 C-5.6288147 559.74698364 -5.6288147 531.36698364 -5.6288147 502.12698364 C14.6661853 501.63198364 14.6661853 501.63198364 35.3711853 501.12698364 C35.3711853 500.13698364 35.3711853 499.14698364 35.3711853 498.12698364 C36.0311853 497.79698364 36.6911853 497.46698364 37.3711853 497.12698364 C37.2061853 496.42573364 37.0411853 495.72448364 36.8711853 495.00198364 C36.34663757 491.98583415 36.3711853 489.182581 36.3711853 486.12698364 C36.1855603 485.44635864 35.9999353 484.76573364 35.8086853 484.06448364 C35.3711853 482.12698364 35.3711853 482.12698364 35.83602905 479.85745239 C36.39507918 477.00507255 36.50418426 474.40560535 36.4961853 471.50198364 C36.49876343 470.56096802 36.50134155 469.61995239 36.5039978 468.65042114 C36.47666528 466.00020857 36.47666528 466.00020857 35.3711853 463.12698364 C36.63188171 461.64253235 36.63188171 461.64253235 38.3711853 460.12698364 C41.3210421 459.93531725 44.03914187 459.91823522 46.97665405 460.05276489 C47.81585892 460.07920578 48.65506378 460.10564667 49.5196991 460.13288879 C52.20008426 460.22066061 54.8791158 460.32980489 57.5586853 460.43948364 C59.37569409 460.50274163 61.1927519 460.56460771 63.00985718 460.62503052 C67.46436298 460.77620264 71.9177728 460.94654665 76.3711853 461.12698364 C77.51926341 456.98085635 77.59694769 452.92021247 77.68759155 448.64260864 C77.7187632 447.41921783 77.7187632 447.41921783 77.75056458 446.17111206 C77.81579827 443.57315259 77.87482298 440.97509451 77.9336853 438.37698364 C77.97689544 436.61265065 78.02051053 434.84832752 78.06454468 433.08401489 C78.17145275 428.76510481 78.27279357 424.4460958 78.3711853 420.12698364 C82.55679239 418.94067442 86.54421722 419.10029027 90.8555603 419.24807739 C91.67115417 419.27168839 92.48674805 419.29529938 93.32705688 419.31962585 C95.9252867 419.39603797 98.52320145 419.48015848 101.1211853 419.56448364 C102.88549294 419.61772683 104.64981583 419.67046707 106.41415405 419.72268677 C110.73336299 419.85162263 115.05230558 419.98747105 119.3711853 420.12698364 C119.36594849 418.93097534 119.36071167 417.73496704 119.35531616 416.50271606 C119.33722818 412.06912991 119.32573935 407.63554703 119.31625366 403.20193481 C119.31122215 401.28233288 119.30439632 399.36273479 119.29574585 397.44314575 C119.28362861 394.685405 119.27794519 391.92771489 119.27352905 389.16995239 C119.26836777 388.31048508 119.26320648 387.45101776 119.25788879 386.56550598 C119.25781326 385.7649025 119.25773773 384.96429901 119.25765991 384.13943481 C119.2554393 383.43550095 119.25321869 382.73156708 119.25093079 382.00630188 C119.3711853 380.12698364 119.3711853 380.12698364 120.3711853 377.12698364 C125.38827152 377.10217681 130.40532165 377.08407312 135.42245483 377.072052 C137.12753929 377.067038 138.83261948 377.06022514 140.53768921 377.05154419 C142.99521949 377.03934979 145.45269268 377.03372589 147.9102478 377.02932739 C148.66673615 377.02416611 149.42322449 377.01900482 150.20263672 377.01368713 C154.36801093 377.01325035 158.2855079 377.31041326 162.3711853 378.12698364 C162.36594849 376.85991577 162.36071167 375.5928479 162.35531616 374.28738403 C162.33727016 369.60412294 162.32575477 364.92086494 162.31625366 360.23757935 C162.31121252 358.20730066 162.30437974 356.17702562 162.29574585 354.14675903 C162.28367063 351.23521018 162.27795496 348.32370914 162.27352905 345.41213989 C162.26836777 344.49860245 162.26320648 343.585065 162.25788879 342.6438446 C162.25769362 340.47122937 162.30906726 338.29871068 162.3711853 336.12698364 C163.3711853 335.12698364 163.3711853 335.12698364 167.24838257 335.01345825 C168.97812698 335.01361743 170.70787611 335.01931515 172.43759155 335.02932739 C173.34621445 335.03074234 174.25483734 335.03215729 175.19099426 335.03361511 C178.10525751 335.03923171 181.01944511 335.05178699 183.9336853 335.06448364 C185.90438732 335.06949651 187.87509054 335.07405978 189.84579468 335.07815552 C194.68762089 335.08920653 199.52939025 335.10648226 204.3711853 335.12698364 C204.30013077 334.37584793 204.22907623 333.62471222 204.15586853 332.85081482 C203.37890445 323.88468257 203.24017875 314.97377386 203.27352905 305.98245239 C203.27539973 304.47645617 203.27682055 302.97045933 203.27781677 301.46446228 C203.28159086 297.54699959 203.29137595 293.62957541 203.30252075 289.71212769 C203.31284625 285.69612142 203.31733798 281.68010879 203.32235718 277.66409302 C203.33300411 269.81837255 203.35001716 261.97268354 203.3711853 254.12698364 C202.16470337 254.13222046 200.95822144 254.13745728 199.71517944 254.14285278 C195.25555152 254.16089975 190.79592685 254.17241453 186.33627319 254.18191528 C184.40299945 254.1869562 182.46972954 254.19378883 180.53646851 254.2024231 C177.76391659 254.21449929 174.99141489 254.22021421 172.21884155 254.22463989 C170.91415672 254.23238182 170.91415672 254.23238182 169.58311462 254.24028015 C167.51212716 254.2404755 165.44124206 254.18906532 163.3711853 254.12698364 C162.3711853 253.12698364 162.3711853 253.12698364 162.25765991 249.24978638 C162.25791107 247.52004198 162.26347487 245.79029259 162.27352905 244.06057739 C162.27453613 243.25559814 162.27554321 242.4506189 162.27658081 241.62124634 C162.28182916 238.60231103 162.29579031 235.58339597 162.3086853 232.56448364 C162.3293103 225.82010864 162.3499353 219.07573364 162.3711853 212.12698364 C148.1811853 211.79698364 133.9911853 211.46698364 119.3711853 211.12698364 C119.3711853 197.59698364 119.3711853 184.06698364 119.3711853 170.12698364 C105.1811853 169.79698364 90.9911853 169.46698364 76.3711853 169.12698364 C76.7011853 168.46698364 77.0311853 167.80698364 77.3711853 167.12698364 C77.52850733 164.13954862 77.62987428 161.17139744 77.68759155 158.18167114 C77.70624268 157.39735718 77.7248938 156.61304321 77.74411011 155.80496216 C77.81248912 152.87075228 77.87258589 149.93635413 77.9336853 147.00198364 C78.0780603 140.44323364 78.2224353 133.88448364 78.3711853 127.12698364 C64.8411853 127.12698364 51.3111853 127.12698364 37.3711853 127.12698364 C35.61268239 121.85147489 35.26584318 120.49045304 36.07821655 115.4692688 C36.68521033 110.61635353 36.43032703 105.69663285 36.3711853 100.81448364 C36.34570194 98.67260684 36.32466021 96.53067122 36.3086853 94.38870239 C36.29708374 93.44986206 36.28548218 92.51102173 36.27352905 91.54373169 C36.3711853 89.12698364 36.3711853 89.12698364 37.3711853 86.12698364 C33.24619992 86.0980598 29.12124045 86.08021098 24.9961853 86.06448364 C23.8205603 86.05610474 22.6449353 86.04772583 21.4336853 86.03909302 C19.75145874 86.03425903 19.75145874 86.03425903 18.0352478 86.02932739 C16.99835815 86.02409058 15.96146851 86.01885376 14.89315796 86.01345825 C12.37521851 85.9555755 12.37521851 85.9555755 10.3711853 87.12698364 C8.03692742 86.80018754 5.70376025 86.46558323 3.3711853 86.12698364 C1.91303761 86.10371533 0.45432762 86.10338062 -1.0038147 86.12698364 C-2.2000647 86.12698364 -3.3963147 86.12698364 -4.6288147 86.12698364 C-6.39209941 84.36369893 -5.75497113 82.03181221 -5.76434326 79.68292236 C-5.76231903 78.90262665 -5.7602948 78.12233093 -5.75820923 77.31838989 C-5.75996155 76.50055023 -5.76171387 75.68271057 -5.76351929 74.84008789 C-5.76793854 72.12319854 -5.76499956 69.40637371 -5.7616272 66.68948364 C-5.76230022 64.8100076 -5.76327022 62.93053165 -5.76452637 61.05105591 C-5.76600344 57.10663018 -5.76384848 53.16222706 -5.75918579 49.21780396 C-5.7534885 44.14985861 -5.75676745 39.08196622 -5.76275826 34.01402283 C-5.76636361 30.13141477 -5.7652254 26.24881937 -5.76263046 22.36621094 C-5.76196112 20.49700921 -5.76278986 18.62780636 -5.76511002 16.75860596 C-5.76763613 14.1508986 -5.76379654 11.54327823 -5.75820923 8.93557739 C-5.76023346 8.15528168 -5.76225769 7.37498596 -5.76434326 6.57104492 C-5.73813449 0.00247274 -5.73813449 0.00247274 0 0 Z M77.3711853 459.12698364 C78.3711853 461.12698364 78.3711853 461.12698364 78.3711853 461.12698364 Z " fill="#090909" transform="translate(212.62881469726563,206.87301635742188)"/>
<path d="M0 0 C0.33 0 0.66 0 1 0 C1.33 12.87 1.66 25.74 2 39 C15.86 39.33 29.72 39.66 44 40 C45.69231876 43.38463752 45.1199633 47.22407538 45.09765625 50.9453125 C45.09664917 51.72962646 45.09564209 52.51394043 45.09460449 53.32202148 C45.08936611 56.25636249 45.07540487 59.19068269 45.0625 62.125 C45.041875 68.68375 45.02125 75.2425 45 82 C58.2 82 71.4 82 85 82 C81.58761454 85.41238546 80.37105217 85.34765909 75.73959351 85.36553955 C74.90513702 85.35319275 74.07068054 85.34084595 73.2109375 85.328125 C72.35190826 85.32625183 71.49287903 85.32437866 70.6078186 85.32244873 C68.79384474 85.31572977 66.97988532 85.30181833 65.16601562 85.28125 C62.37877045 85.25004222 59.5920902 85.24027426 56.8046875 85.234375 C55.04426389 85.22520727 53.28384606 85.21483224 51.5234375 85.203125 C50.68493256 85.19887512 49.84642761 85.19462524 48.98251343 85.19024658 C43.11716239 85.11716239 43.11716239 85.11716239 42 84 C41.83965525 80.97213446 41.74032037 77.96396008 41.68359375 74.93359375 C41.66494263 74.1286145 41.6462915 73.32363525 41.6270752 72.4942627 C41.55856593 69.47545779 41.49855259 66.45646492 41.4375 63.4375 C41.293125 56.693125 41.14875 49.94875 41 43 C27.47 43 13.94 43 0 43 C0 28.81 0 14.62 0 0 Z " fill="#111111" transform="translate(542,585)"/>
<path d="M0 0 C1.65 0 3.3 0 5 0 C4.34 0.66 3.68 1.32 3 2 C2.75393985 5.00886724 2.62619218 7.93217752 2.5859375 10.9453125 C2.56657135 11.8303244 2.5472052 12.7153363 2.5272522 13.62716675 C2.46737277 16.45967916 2.42103787 19.29223203 2.375 22.125 C2.33682789 24.04298668 2.29777662 25.96095607 2.2578125 27.87890625 C2.16166445 32.58579748 2.07766458 37.29276896 2 42 C1.01 42 0.02 42 -1 42 C-0.67 28.14 -0.34 14.28 0 0 Z " fill="#010101" transform="translate(585,334)"/>
<path d="M0 0 C1 4 1 4 1 4 Z " fill="#282827" transform="translate(289,658)"/>
<path d="M0 0 C4 1 4 1 4 1 Z " fill="#282727" transform="translate(641,462)"/>
<path d="M0 0 C1 4 1 4 1 4 Z " fill="#292828" transform="translate(624,312)"/>
<path d="M0 0 C0.99 0.495 0.99 0.495 2 1 C1.01 1.495 1.01 1.495 0 2 C0 1.34 0 0.68 0 0 Z " fill="#272828" transform="translate(624,688)"/>
<path d="M0 0 C3 1 3 1 3 1 Z " fill="#292726" transform="translate(435,671)"/>
<path d="" fill="#282827" transform="translate(0,0)"/>
<path d="" fill="#282827" transform="translate(0,0)"/>
<path d="M0 0 C3 1 3 1 3 1 Z " fill="#282828" transform="translate(394,462)"/>
<path d="M0 0 C3 1 3 1 3 1 Z " fill="#272828" transform="translate(252,335)"/>
<path d="M0 0 C2 1 2 1 2 1 Z " fill="#262727" transform="translate(257,796)"/>
<path d="" fill="#2E2E2D" transform="translate(0,0)"/>
<path d="M0 0 C2 1 2 1 2 1 Z " fill="#292527" transform="translate(420,671)"/>
<path d="" fill="#2B2A29" transform="translate(0,0)"/>
<path d="" fill="#292828" transform="translate(0,0)"/>
<path d="M0 0 C2 1 2 1 2 1 Z " fill="#2A2A2A" transform="translate(659,462)"/>
<path d="M0 0 C2 1 2 1 2 1 Z " fill="#292826" transform="translate(403,462)"/>
<path d="M0 0 C2 1 2 1 2 1 Z " fill="#282727" transform="translate(387,462)"/>
<path d="M0 0 C2 1 2 1 2 1 Z " fill="#282928" transform="translate(376,462)"/>
<path d="" fill="#292828" transform="translate(0,0)"/>
<path d="M0 0 C2 1 2 1 2 1 Z " fill="#252624" transform="translate(288,335)"/>
<path d="M0 0 C2 1 2 1 2 1 Z " fill="#282826" transform="translate(260,335)"/>
<path d="" fill="#2A2D2A" transform="translate(0,0)"/>
<path d="" fill="#262525" transform="translate(0,0)"/>
<path d="" fill="#292C2A" transform="translate(0,0)"/>
<path d="M0 0 C2 1 2 1 2 1 Z " fill="#292728" transform="translate(825,293)"/>
<path d="M0 0 C2 1 2 1 2 1 Z " fill="#272927" transform="translate(662,290)"/>
<path d="M0 0 C2 1 2 1 2 1 Z " fill="#282625" transform="translate(692,249)"/>
<path d="" fill="#333332" transform="translate(0,0)"/>
<path d="" fill="#333433" transform="translate(0,0)"/>
<path d="" fill="#292926" transform="translate(0,0)"/>
<path d="" fill="#2A2829" transform="translate(0,0)"/>
<path d="" fill="#292728" transform="translate(0,0)"/>
<path d="" fill="#272828" transform="translate(0,0)"/>
<path d="" fill="#262826" transform="translate(0,0)"/>
<path d="" fill="#262628" transform="translate(0,0)"/>
<path d="" fill="#272725" transform="translate(0,0)"/>
<path d="" fill="#282724" transform="translate(0,0)"/>
<path d="" fill="#282726" transform="translate(0,0)"/>
<path d="" fill="#262827" transform="translate(0,0)"/>
<path d="" fill="#272526" transform="translate(0,0)"/>
<path d="" fill="#2D2C2C" transform="translate(0,0)"/>
<path d="" fill="#383636" transform="translate(0,0)"/>
<path d="" fill="#282A2A" transform="translate(0,0)"/>
<path d="" fill="#2A2829" transform="translate(0,0)"/>
<path d="" fill="#2A2928" transform="translate(0,0)"/>
<path d="" fill="#2A2A28" transform="translate(0,0)"/>
<path d="" fill="#2A282A" transform="translate(0,0)"/>
<path d="" fill="#2B2C2A" transform="translate(0,0)"/>
<path d="" fill="#282728" transform="translate(0,0)"/>
<path d="" fill="#272927" transform="translate(0,0)"/>
<path d="" fill="#292828" transform="translate(0,0)"/>
<path d="" fill="#292828" transform="translate(0,0)"/>
<path d="" fill="#282727" transform="translate(0,0)"/>
<path d="" fill="#292929" transform="translate(0,0)"/>
<path d="" fill="#2A2828" transform="translate(0,0)"/>
<path d="" fill="#2C2A29" transform="translate(0,0)"/>
<path d="" fill="#2B2B2B" transform="translate(0,0)"/>
<path d="" fill="#2A2A2A" transform="translate(0,0)"/>
<path d="" fill="#292928" transform="translate(0,0)"/>
<path d="" fill="#282829" transform="translate(0,0)"/>
<path d="" fill="#282827" transform="translate(0,0)"/>
<path d="" fill="#292727" transform="translate(0,0)"/>
<path d="" fill="#2F2C2D" transform="translate(0,0)"/>
<path d="" fill="#2A2A29" transform="translate(0,0)"/>
<path d="" fill="#2D2C2A" transform="translate(0,0)"/>
<path d="" fill="#292727" transform="translate(0,0)"/>
<path d="" fill="#282728" transform="translate(0,0)"/>
<path d="" fill="#292A27" transform="translate(0,0)"/>
<path d="" fill="#29292A" transform="translate(0,0)"/>
<path d="" fill="#2A2A29" transform="translate(0,0)"/>
<path d="" fill="#29282A" transform="translate(0,0)"/>
<path d="" fill="#2D2B28" transform="translate(0,0)"/>
<path d="" fill="#2D2C2C" transform="translate(0,0)"/>
<path d="" fill="#414041" transform="translate(0,0)"/>
<path d="" fill="#252624" transform="translate(0,0)"/>
<path d="" fill="#252425" transform="translate(0,0)"/>
<path d="" fill="#252325" transform="translate(0,0)"/>
<path d="" fill="#242625" transform="translate(0,0)"/>
<path d="" fill="#373737" transform="translate(0,0)"/>
<path d="" fill="#343535" transform="translate(0,0)"/>
<path d="" fill="#252425" transform="translate(0,0)"/>
<path d="" fill="#2A2827" transform="translate(0,0)"/>
<path d="" fill="#2A2B27" transform="translate(0,0)"/>
<path d="" fill="#282727" transform="translate(0,0)"/>
<path d="" fill="#2A2827" transform="translate(0,0)"/>
<path d="" fill="#252627" transform="translate(0,0)"/>
<path d="" fill="#292827" transform="translate(0,0)"/>
<path d="" fill="#272729" transform="translate(0,0)"/>
<path d="" fill="#2B2A29" transform="translate(0,0)"/>
<path d="" fill="#2A2929" transform="translate(0,0)"/>
<path d="" fill="#262525" transform="translate(0,0)"/>
<path d="" fill="#2C2B2B" transform="translate(0,0)"/>
<path d="" fill="#262625" transform="translate(0,0)"/>
<path d="" fill="#292B2B" transform="translate(0,0)"/>
<path d="" fill="#3D3E3E" transform="translate(0,0)"/>
<path d="" fill="#383839" transform="translate(0,0)"/>
<path d="" fill="#2E2F2F" transform="translate(0,0)"/>
<path d="" fill="#292A28" transform="translate(0,0)"/>
<path d="" fill="#272726" transform="translate(0,0)"/>
<path d="" fill="#272526" transform="translate(0,0)"/>
<path d="" fill="#272927" transform="translate(0,0)"/>
<path d="" fill="#272727" transform="translate(0,0)"/>
<path d="" fill="#272727" transform="translate(0,0)"/>
<path d="" fill="#2C2C2A" transform="translate(0,0)"/>
<path d="" fill="#242525" transform="translate(0,0)"/>
<path d="" fill="#272828" transform="translate(0,0)"/>
<path d="" fill="#282B29" transform="translate(0,0)"/>
<path d="" fill="#2A2A2A" transform="translate(0,0)"/>
<path d="" fill="#272527" transform="translate(0,0)"/>
<path d="" fill="#262827" transform="translate(0,0)"/>
<path d="" fill="#292728" transform="translate(0,0)"/>
<path d="" fill="#2A2827" transform="translate(0,0)"/>
<path d="" fill="#292929" transform="translate(0,0)"/>
<path d="" fill="#282629" transform="translate(0,0)"/>
<path d="" fill="#262725" transform="translate(0,0)"/>
<path d="" fill="#2A2926" transform="translate(0,0)"/>
<path d="" fill="#252526" transform="translate(0,0)"/>
<path d="" fill="#2A2928" transform="translate(0,0)"/>
<path d="" fill="#2C2B2A" transform="translate(0,0)"/>
<path d="" fill="#2B2B2B" transform="translate(0,0)"/>
<path d="" fill="#2D2D2B" transform="translate(0,0)"/>
<path d="" fill="#292726" transform="translate(0,0)"/>
<path d="" fill="#292B29" transform="translate(0,0)"/>
<path d="" fill="#2B292A" transform="translate(0,0)"/>
<path d="" fill="#29282A" transform="translate(0,0)"/>
<path d="" fill="#282826" transform="translate(0,0)"/>
<path d="" fill="#272827" transform="translate(0,0)"/>
<path d="" fill="#292928" transform="translate(0,0)"/>
<path d="" fill="#292727" transform="translate(0,0)"/>
<path d="" fill="#282524" transform="translate(0,0)"/>
<path d="" fill="#383838" transform="translate(0,0)"/>
<path d="" fill="#3F3F3E" transform="translate(0,0)"/>
</svg>
